# xmcd
#
# Track frame offsets:
#	150
#	12843
#	23835
#	34948
#	46550
#	60010
#	71605
#	81310
#	94280
#	106913
#
# Disc length: 1620
#
# Revision: 1
# Processed by: cddbd v1.5.1PL0 Copyright (c) Steve Scherf et al.
# Submitted via: CDex 1.40Beta9
# Normalized: r0:DSETVAR1,TDELIM( - )
#
DISCID=6f06520a
DTITLE=Various Artist - Heartache On Highway 41
DYEAR=1998
DGENRE=Country
TTITLE0=Johnny Paycheck - She's All I Got
TTITLE1=Conway Twitty - Mona Lisa
TTITLE2=Oak Ridge Boys - Walk With Me
TTITLE3=Willie Nelson - Touch Me
TTITLE4=Alabama - Patches
TTITLE5=Roger Miller - Little Green Apples
TTITLE6=Dave Dudley - 6 Days On The Road
TTITLE7=Kenny Rogers - Ruby, Don't Take Your Love To Town
TTITLE8=Freddy Fender - Wasted Days, Wasted Nights
TTITLE9=Moe Bandy - Hank Williams, You Wrote My Life
EXTD=YEAR: 1998 ID3G: 2
EXTT0=
EXTT1=
EXTT2=
EXTT3=
EXTT4=
EXTT5=
EXTT6=
EXTT7=
EXTT8=
EXTT9=
PLAYORDER=
